<?xml version="1.0" standalone="no"?>
<!DOCTYPE svg PUBLIC "-//W3C//DTD SVG 20010904//EN"
 "http://www.w3.org/TR/2001/REC-SVG-20010904/DTD/svg10.dtd">
<svg version="1.0" xmlns="http://www.w3.org/2000/svg"
 width="1757.000000pt" height="1757.000000pt" viewBox="0 0 1757.000000 1757.000000"
 preserveAspectRatio="xMidYMid meet">

<g transform="translate(0.000000,1757.000000) scale(0.100000,-0.100000)"
fill="#000000" stroke="none">
<path d="M8275 17549 c-1557 -98 -3013 -579 -4290 -1417 -1969 -1291 -3339
-3312 -3799 -5602 -122 -608 -169 -1088 -170 -1730 0 -576 34 -997 125 -1520
255 -1474 883 -2854 1832 -4023 341 -422 818 -902 1232 -1242 1799 -1476 4053
-2174 6365 -1969 2592 229 4942 1597 6437 3749 797 1147 1312 2493 1487 3885
53 417 61 560 61 1105 0 546 -8 686 -61 1105 -215 1711 -922 3301 -2052 4617
-1021 1190 -2348 2087 -3836 2592 -680 231 -1358 371 -2116 437 -217 19 -996
27 -1215 13z m1058 -329 c1492 -100 2878 -567 4112 -1385 1710 -1133 2943
-2827 3489 -4795 347 -1252 397 -2604 145 -3890 -421 -2138 -1657 -4032 -3454
-5292 -529 -370 -1127 -692 -1735 -933 -766 -303 -1522 -480 -2400 -561 -238
-22 -898 -30 -1168 -15 -1781 101 -3449 742 -4832 1855 -341 275 -767 682
-1046 1001 -1214 1389 -1917 3042 -2080 4890 -21 248 -30 866 -15 1135 85
1544 564 2983 1418 4258 529 791 1218 1513 1983 2082 1363 1012 2963 1581
4668 1660 216 10 693 5 915 -10z"/>
<path d="M8435 17004 c-370 -22 -639 -49 -905 -90 -1554 -240 -2979 -907
-4180 -1958 -162 -141 -497 -473 -660 -653 -747 -824 -1325 -1802 -1685 -2853
-494 -1443 -574 -3020 -230 -4522 201 -874 565 -1747 1050 -2518 535 -850
1234 -1607 2045 -2214 1841 -1378 4172 -1917 6448 -1490 2023 379 3841 1519
5076 3184 886 1193 1427 2591 1576 4070 59 591 52 1264 -21 1840 -163 1297
-611 2494 -1341 3581 -440 656 -1021 1291 -1645 1796 -643 522 -1368 947
-2138 1253 -777 309 -1575 492 -2445 560 -134 11 -829 21 -945 14z m810 -174
c1602 -99 3075 -632 4340 -1572 575 -427 1145 -986 1571 -1539 869 -1128 1411
-2408 1608 -3799 62 -437 80 -744 73 -1252 -5 -395 -17 -578 -58 -903 -384
-3056 -2513 -5645 -5444 -6623 -1533 -511 -3216 -547 -4770 -101 -1186 341
-2279 952 -3200 1789 -171 156 -483 473 -625 635 -1507 1721 -2206 3938 -1959
6210 332 3058 2405 5672 5323 6709 701 250 1535 415 2266 449 166 8 731 6 875
-3z"/>
<path d="M11011 16341 c-27 -27 -26 -40 4 -129 30 -87 31 -113 8 -141 -35 -43
-70 -38 -362 49 -299 89 -327 93 -368 45 -41 -47 -24 -132 34 -173 43 -30 119
-51 256 -71 139 -20 177 -37 177 -77 0 -19 -8 -28 -34 -39 -29 -12 -61 -12
-250 5 -190 17 -221 18 -251 6 -61 -26 -74 -89 -27 -136 57 -56 221 -64 411
-20 88 21 96 21 127 6 26 -12 34 -22 34 -41 0 -38 -16 -62 -52 -81 -57 -30
-91 -35 -248 -43 -186 -9 -227 -24 -254 -91 -9 -22 -16 -52 -16 -67 0 -15 -30
-105 -66 -201 -36 -95 -68 -195 -71 -221 -11 -94 30 -151 108 -151 18 0 109
-18 203 -39 94 -22 248 -56 341 -76 561 -121 888 -319 1118 -676 30 -47 69
-97 86 -111 63 -54 156 -61 186 -15 44 68 20 145 -98 310 -6 8 14 49 53 111
79 126 180 334 221 456 54 162 42 281 -39 382 -49 61 -151 143 -213 169 -27
12 -49 25 -49 30 0 7 19 56 26 67 1 2 46 -16 100 -39 288 -122 324 -129 372
-75 34 39 92 180 99 242 13 108 -75 170 -541 378 -299 134 -345 150 -430 144
-87 -5 -115 -28 -171 -139 -59 -120 -62 -174 -11 -216 19 -15 93 -59 165 -96
l131 -68 -16 -31 c-11 -22 -20 -28 -32 -22 -137 60 -229 59 -355 -4 -82 -41
-245 -171 -279 -224 -32 -48 -146 -56 -225 -15 -83 43 -86 132 -6 157 64 20
120 58 143 96 14 21 33 85 47 157 36 183 61 226 152 261 64 25 126 71 152 113
61 98 -4 249 -138 320 -82 44 -125 51 -152 24z m968 -622 c259 -117 301 -142
326 -190 22 -42 -1 -79 -51 -79 -18 0 -420 168 -507 211 -84 42 -97 55 -97 97
0 42 24 72 58 72 13 0 135 -50 271 -111z m-391 -412 c61 -56 -25 -109 -92 -56
-32 26 -31 58 2 75 29 14 60 8 90 -19z m-1079 -89 c14 -24 12 -33 -28 -140
-55 -148 -62 -158 -108 -158 -37 0 -73 23 -73 46 0 25 83 235 102 260 28 35
86 31 107 -8z m1430 -63 c28 -31 41 -53 41 -74 0 -49 -19 -54 -78 -21 -57 33
-76 60 -66 93 18 61 48 61 103 2z m-507 -37 c61 -26 92 -60 84 -91 -15 -60
-135 -54 -208 11 -24 21 -23 67 3 93 23 23 42 21 121 -13z m-623 -124 c40 -33
42 -80 6 -122 -32 -38 -65 -46 -110 -28 -42 18 -60 52 -51 100 14 72 97 99
155 50z m1066 -73 c50 -23 133 -108 137 -140 2 -16 -6 -30 -24 -44 -25 -18
-31 -19 -69 -8 -82 25 -174 154 -139 196 16 20 46 19 95 -4z m-579 -46 c45
-27 79 -78 70 -107 -3 -7 -7 -25 -10 -40 -3 -14 -18 -40 -32 -57 -23 -27 -32
-31 -77 -31 -143 0 -253 129 -185 215 48 61 149 70 234 20z m465 -253 c63 -43
115 -86 117 -96 13 -63 -51 -159 -104 -159 -39 0 -212 83 -246 118 -66 67 -6
215 87 215 23 0 62 -21 146 -78z"/>
<path d="M6450 15937 c-36 -13 -157 -68 -269 -122 -352 -168 -457 -174 -525
-29 -35 74 -59 104 -104 131 -80 49 -162 16 -162 -65 0 -50 19 -104 59 -169
84 -137 33 -208 -239 -340 -85 -42 -224 -109 -308 -150 -153 -74 -220 -122
-248 -174 -33 -65 -4 -119 66 -119 63 0 134 33 350 161 112 67 270 157 351
201 163 88 171 89 209 25 31 -50 25 -67 -41 -122 -167 -139 -359 -368 -463
-552 -111 -197 -203 -473 -212 -638 -5 -71 -2 -85 18 -120 43 -74 115 -103
176 -71 48 25 71 82 87 218 39 310 134 553 313 796 119 163 213 246 362 322
160 81 295 102 512 81 216 -21 351 -82 609 -275 92 -68 176 -129 187 -135 49
-26 136 0 162 50 7 13 10 45 8 75 -14 163 -292 360 -635 449 -219 57 -515 69
-713 30 -95 -19 -87 -20 -105 15 -31 60 -21 72 101 121 186 74 467 155 604
173 99 14 193 99 174 159 -18 59 -73 88 -178 94 -68 3 -92 0 -146 -20z"/>
<path d="M8523 14433 c-35 -2 -63 -7 -64 -11 0 -4 -15 -144 -32 -312 l-33
-305 -154 -18 c-85 -9 -203 -25 -262 -35 -96 -16 -108 -16 -113 -2 -4 8 -54
139 -112 290 -58 151 -107 277 -109 279 -11 11 -606 -148 -626 -167 -6 -6 55
-420 87 -595 3 -20 0 -29 -13 -34 -61 -21 -320 -127 -385 -157 -43 -20 -82
-34 -87 -31 -4 2 -88 115 -185 250 -98 135 -183 245 -189 245 -31 0 -569 -316
-561 -329 4 -7 209 -466 236 -528 l18 -42 -87 -63 c-48 -35 -142 -107 -209
-160 l-122 -97 -240 194 c-131 107 -245 195 -251 195 -16 0 -463 -447 -458
-459 1 -5 86 -112 188 -237 102 -125 189 -234 193 -241 6 -9 -22 -51 -86 -131
-52 -64 -122 -156 -156 -204 -35 -49 -67 -88 -71 -88 -4 0 -135 57 -290 126
-155 69 -283 124 -285 122 -40 -49 -325 -543 -325 -563 0 -2 113 -86 250 -186
138 -100 250 -187 250 -194 0 -7 -20 -54 -44 -106 -24 -52 -67 -156 -97 -231
-38 -98 -58 -138 -69 -138 -9 0 -143 20 -298 45 -155 25 -288 45 -296 45 -11
0 -26 -36 -52 -117 -51 -163 -136 -506 -126 -513 4 -4 135 -55 292 -115 157
-59 286 -109 288 -110 1 -1 -7 -58 -18 -126 -11 -68 -26 -184 -35 -258 -8 -73
-16 -135 -18 -137 -2 -2 -143 -19 -313 -37 l-309 -32 -3 -328 c-1 -180 -1
-327 0 -327 2 -1 141 -15 310 -33 169 -19 310 -36 314 -40 4 -3 10 -46 15 -94
5 -48 18 -155 30 -238 12 -82 23 -159 23 -169 1 -16 -47 -37 -284 -128 -157
-60 -288 -112 -291 -116 -13 -13 133 -577 160 -621 6 -8 83 1 297 34 159 25
298 46 308 48 16 2 30 -25 86 -163 37 -91 83 -200 102 -242 l36 -77 -251 -182
c-139 -100 -253 -183 -255 -184 -10 -8 171 -333 271 -488 l55 -85 288 128 287
128 70 -96 c38 -54 104 -139 146 -190 42 -52 82 -102 90 -113 12 -17 0 -36
-145 -215 -88 -108 -176 -218 -198 -245 l-38 -49 111 -119 c163 -174 348 -344
363 -335 7 5 118 93 246 197 l233 189 57 -46 c74 -60 329 -253 348 -264 12 -7
-8 -59 -106 -278 -66 -148 -123 -279 -126 -290 -5 -18 10 -31 98 -86 163 -102
441 -258 460 -258 2 0 84 112 183 250 99 137 185 250 190 250 6 0 64 -24 130
-54 66 -29 172 -73 235 -96 63 -24 116 -44 117 -45 2 -1 -75 -495 -92 -592
l-6 -32 113 -36 c118 -37 518 -139 522 -133 2 1 52 131 111 288 60 157 111
288 114 292 3 4 56 -1 116 -12 61 -10 164 -24 230 -30 66 -7 133 -16 150 -19
l30 -7 32 -305 c18 -167 32 -307 32 -310 1 -10 326 -18 494 -12 l164 6 32 311
c18 171 33 312 35 313 1 1 66 10 144 18 78 9 194 24 259 35 64 10 118 18 119
17 1 -1 45 -116 99 -256 137 -361 124 -332 149 -326 95 20 374 92 476 123 100
31 126 42 128 58 1 10 -18 146 -43 301 -25 155 -45 288 -45 295 0 8 35 26 78
42 42 16 149 59 237 97 88 38 163 69 167 69 3 0 88 -112 188 -250 99 -137 184
-250 188 -250 20 0 445 246 555 321 5 4 -47 134 -117 289 -69 155 -126 285
-126 289 0 4 35 31 77 61 42 30 135 101 205 158 84 66 133 100 142 95 7 -5
115 -91 240 -193 125 -102 232 -187 237 -189 6 -2 114 101 241 228 l230 230
-84 103 c-47 57 -137 167 -201 246 l-116 142 104 129 c57 71 129 165 160 210
31 45 60 79 63 77 4 -2 131 -59 282 -126 151 -67 278 -124 281 -126 16 -10
329 527 329 564 0 5 -110 89 -245 186 -135 98 -247 181 -250 186 -3 4 15 50
38 101 24 52 70 160 102 241 52 133 60 147 79 143 84 -19 591 -94 597 -88 19
21 169 562 169 612 0 12 -77 45 -286 125 -157 61 -288 115 -291 122 -2 7 5 70
16 141 11 70 26 182 32 248 7 66 13 122 15 124 2 2 141 19 309 36 168 18 309
35 312 39 10 10 16 431 8 548 l-7 104 -276 28 c-152 16 -293 31 -313 33 l-36
5 -7 82 c-4 44 -18 161 -32 259 -14 98 -24 180 -22 182 1 2 129 51 283 110
154 59 284 111 289 116 11 10 -44 248 -111 472 -36 121 -50 157 -63 157 -9 0
-144 -20 -300 -45 -156 -25 -290 -44 -298 -43 -8 2 -40 68 -71 148 -32 80 -77
187 -100 239 -24 51 -39 96 -34 100 5 3 120 87 256 185 l246 179 -46 86 c-130
243 -281 484 -297 478 -6 -3 -133 -60 -282 -126 -149 -67 -275 -121 -280 -121
-5 1 -37 40 -70 88 -34 48 -99 134 -145 191 -46 56 -89 110 -95 120 -10 13 19
54 182 254 107 131 194 242 194 248 0 25 -433 459 -458 459 -4 0 -115 -87
-247 -194 -204 -165 -242 -193 -256 -183 -10 7 -64 50 -120 96 -57 46 -143
111 -191 145 -48 33 -87 64 -88 69 0 4 57 134 126 289 l126 282 -24 17 c-92
70 -524 313 -544 305 -6 -2 -89 -111 -184 -243 -95 -131 -176 -242 -180 -246
-4 -5 -68 18 -142 51 -74 33 -181 77 -237 98 -57 21 -105 43 -107 49 -3 7 16
140 41 297 25 156 45 293 45 304 0 16 -22 26 -123 57 -188 58 -496 132 -506
121 -4 -5 -57 -136 -116 -291 -80 -211 -112 -283 -124 -283 -9 0 -90 11 -181
24 -91 13 -202 28 -247 31 -46 4 -83 10 -83 14 1 19 -63 617 -66 620 -5 6
-517 9 -591 4z m815 -1162 c502 -66 956 -199 1397 -410 895 -429 1648 -1169
2095 -2062 485 -967 603 -2088 330 -3147 -193 -748 -582 -1436 -1133 -2009
l-100 -103 -3137 0 -3137 0 -124 128 c-692 711 -1120 1631 -1236 2654 -24 214
-24 722 0 933 138 1196 698 2240 1608 3002 688 575 1547 935 2454 1028 217 22
769 14 983 -14z m2277 -8001 c-11 -18 -229 -176 -360 -263 -603 -395 -1248
-626 -1990 -714 -212 -25 -749 -25 -955 0 -897 109 -1658 425 -2350 974 -12
10 590 12 2823 13 1840 0 2836 -3 2832 -10z"/>
<path d="M8888 12276 c-25 -7 -58 -20 -72 -29 l-26 -17 0 -1105 0 -1105 235 0
235 0 0 1100 c0 1076 0 1100 -19 1119 -47 47 -242 67 -353 37z"/>
<path d="M9412 12126 c-24 -8 -52 -22 -63 -32 -18 -17 -19 -44 -19 -1046 l0
-1028 195 0 195 0 0 727 c0 527 3 724 11 716 6 -6 240 -366 519 -799 l508
-789 -169 -3 -169 -2 0 -515 0 -515 43 6 c95 14 548 118 628 144 108 36 262
105 381 171 115 64 160 95 222 153 26 25 57 48 67 51 10 4 19 15 19 26 0 25
36 25 50 0 6 -11 10 -89 10 -180 l0 -161 -31 0 c-44 0 -93 -33 -115 -78 -16
-32 -19 -67 -22 -244 -3 -189 -2 -211 17 -252 21 -49 64 -82 119 -92 l32 -6 0
-143 0 -142 -38 -7 c-92 -14 -121 -78 -129 -282 -9 -217 20 -325 99 -365 35
-18 55 -20 132 -17 101 3 142 22 172 79 19 38 37 240 29 339 -14 175 -42 235
-116 246 l-39 7 0 142 0 143 29 5 c43 9 97 61 117 113 24 62 16 406 -11 472
-20 48 -56 79 -100 84 l-30 3 -3 146 -3 146 31 13 c40 16 82 61 97 102 6 18
12 74 12 125 l1 92 63 30 c65 31 157 116 157 146 0 13 -19 15 -125 15 l-124 0
-16 29 c-20 39 -20 39 -108 51 -67 10 -82 8 -134 -10 -32 -11 -67 -31 -78 -45
l-21 -25 -454 0 -455 0 160 105 c88 58 164 106 169 108 4 1 -236 382 -535 845
l-542 842 -43 0 c-67 0 -170 -52 -246 -124 -15 -14 -29 -26 -32 -26 -3 0 -7
107 -8 238 l-3 237 -40 20 c-52 25 -200 31 -263 11z m2433 -3178 c17 -38 88
-36 100 2 8 26 37 26 61 -1 16 -18 20 -45 26 -192 9 -212 -2 -266 -57 -287
-16 -6 -22 -2 -32 21 -17 41 -66 41 -91 1 -15 -25 -20 -28 -49 -20 -47 12 -56
55 -51 268 2 148 6 180 21 203 22 34 58 36 72 5z m-2 -978 c11 -55 107 -51
107 5 0 20 5 25 24 25 42 0 51 -44 51 -240 0 -96 -3 -187 -8 -202 -11 -41 -48
-60 -116 -61 -77 0 -117 16 -131 56 -30 80 -22 348 12 422 17 37 54 34 61 -5z"/>
<path d="M8341 11873 c-26 -9 -65 -36 -92 -63 l-47 -47 -294 -6 c-346 -7 -484
-22 -918 -103 -212 -40 -206 -37 -213 -85 -3 -23 -26 -82 -51 -132 -25 -50
-44 -92 -42 -94 9 -10 168 21 281 54 193 55 350 91 495 113 162 24 546 44 610
32 l45 -8 -50 -8 c-27 -3 -173 -17 -323 -31 -151 -13 -276 -26 -279 -29 -3 -3
8 -19 25 -35 l32 -29 472 -7 c465 -7 474 -7 532 14 107 37 168 127 170 246 1
106 -58 188 -163 223 -47 16 -137 14 -190 -5z m136 -142 c52 -24 77 -60 68
-99 -6 -30 -63 -91 -105 -112 -32 -17 -90 -30 -90 -20 0 4 23 28 50 54 57 53
61 75 30 145 -11 24 -20 45 -20 47 0 9 27 2 67 -15z"/>
<path d="M7080 11145 l0 -195 800 0 800 0 0 195 0 195 -800 0 -800 0 0 -195z
m1450 0 c0 -148 -1 -155 -20 -155 -19 0 -20 7 -20 155 0 148 1 155 20 155 19
0 20 -7 20 -155z"/>
<path d="M7084 10867 c-2 -7 -3 -96 -2 -197 l3 -185 798 -3 797 -2 0 200 0
200 -795 0 c-638 0 -797 -3 -801 -13z m1446 -187 c0 -153 -1 -160 -20 -160
-19 0 -20 7 -20 160 0 153 1 160 20 160 19 0 20 -7 20 -160z"/>
<path d="M7080 10215 l0 -195 800 0 800 0 0 195 0 195 -800 0 -800 0 0 -195z
m1450 0 c0 -148 -1 -155 -20 -155 -19 0 -20 7 -20 155 0 148 1 155 20 155 19
0 20 -7 20 -155z"/>
<path d="M6130 9858 c0 -40 7 -161 14 -268 8 -107 18 -249 22 -315 7 -125 24
-188 65 -231 45 -48 211 -104 309 -104 30 0 98 -9 150 -20 112 -23 119 -24
125 -7 2 6 38 102 81 212 42 110 109 286 148 390 81 213 88 226 127 249 70 41
194 -10 229 -94 13 -32 8 -53 -90 -355 -57 -174 -140 -467 -140 -489 0 -6 44
-31 98 -56 53 -25 169 -93 258 -151 160 -105 162 -107 221 -197 34 -49 70
-116 82 -147 75 -201 39 -500 -94 -780 -42 -88 -45 -91 -122 -141 -43 -28
-121 -76 -173 -107 -52 -31 -108 -68 -125 -82 l-30 -24 1567 -1 c1310 0 1567
2 1562 13 -3 8 -59 64 -124 126 -207 194 -398 427 -469 573 -63 128 -85 229
-78 363 9 170 49 267 147 358 69 64 152 106 315 158 l125 41 0 519 0 520 -47
59 -48 60 -2052 0 -2053 0 0 -72z"/>
<path d="M7041 9296 c-363 -995 -1083 -2952 -1090 -2958 -4 -5 -79 21 -166 56
-134 54 -162 62 -175 51 -25 -21 -55 -26 -99 -16 -28 6 -43 5 -49 -3 -13 -17
-172 -413 -172 -428 0 -7 19 -22 42 -33 35 -16 44 -27 51 -55 l8 -35 408 -163
409 -163 35 17 c28 14 43 15 76 7 29 -8 43 -8 50 1 14 17 172 417 169 426 -2
5 -19 19 -38 32 -23 16 -38 36 -45 62 -11 38 -12 39 -161 98 -82 33 -150 61
-152 63 -2 1 243 691 543 1531 547 1530 641 1798 647 1843 3 21 -6 28 -67 56
l-71 32 -153 -421z"/>
<path d="M7194 7070 c-43 -17 -71 -151 -58 -279 l7 -71 37 0 c21 0 59 9 85 20
47 20 63 20 1624 16 867 -2 1597 -7 1624 -11 l47 -7 0 132 c0 152 -11 181 -78
200 -46 12 -3257 13 -3288 0z"/>
<path d="M6660 6165 l0 -515 2185 0 2185 0 0 515 0 515 -2185 0 -2185 0 0
-515z m1248 8 l-3 -358 -102 -3 -103 -3 0 206 0 205 -80 0 -80 0 0 74 0 73 49
7 c68 9 111 41 141 103 l25 53 78 0 77 0 -2 -357z m713 337 c113 -31 177 -135
145 -232 -8 -24 -28 -54 -44 -67 l-30 -24 31 -21 c66 -45 89 -113 68 -194 -16
-57 -60 -104 -123 -133 -47 -21 -68 -24 -173 -24 -104 0 -127 4 -173 24 -144
65 -179 240 -63 316 l40 27 -35 30 c-80 71 -60 206 41 268 72 45 214 58 316
30z m727 -10 c62 -28 115 -81 144 -144 20 -45 23 -66 23 -187 0 -136 0 -136
-35 -205 -55 -109 -136 -154 -276 -154 -145 0 -236 53 -268 156 -6 21 -2 22
89 29 95 7 96 7 116 -19 16 -20 29 -26 60 -26 22 0 49 5 60 10 25 14 49 62 49
101 0 26 -3 30 -17 24 -93 -40 -140 -44 -223 -19 -72 21 -123 72 -144 144 -20
66 -20 83 -1 148 26 87 77 132 180 159 67 17 184 9 243 -17z m694 19 c98 -20
164 -75 183 -150 6 -24 3 -27 -32 -32 -21 -4 -62 -7 -92 -7 -45 0 -58 4 -77
25 -18 19 -33 25 -68 25 -37 0 -48 -5 -70 -31 -14 -17 -26 -40 -26 -52 0 -12
-3 -32 -6 -44 l-6 -23 48 22 c101 45 234 21 297 -53 110 -128 56 -326 -102
-373 -69 -20 -182 -21 -250 0 -73 21 -143 88 -173 163 -32 82 -32 260 1 345
59 151 201 221 373 185z"/>
<path d="M8430 6360 c-11 -11 -20 -33 -20 -50 0 -45 31 -70 85 -70 54 0 85 25
85 70 0 45 -31 70 -85 70 -32 0 -51 -6 -65 -20z"/>
<path d="M8444 6111 c-26 -11 -44 -58 -37 -94 8 -42 39 -62 95 -62 41 0 53 4
70 25 23 28 20 92 -5 117 -18 18 -94 26 -123 14z"/>
<path d="M9173 6365 c-36 -15 -46 -41 -41 -100 9 -107 168 -92 168 16 0 70
-63 111 -127 84z"/>
<path d="M9924 6133 c-59 -11 -82 -110 -36 -155 32 -33 106 -32 133 1 21 25
26 90 9 121 -8 16 -63 42 -79 39 -3 -1 -16 -4 -27 -6z"/>
<path d="M2306 13405 c-51 -18 -88 -55 -142 -141 -53 -85 -124 -245 -124 -280
0 -13 -4 -24 -9 -24 -15 0 -86 -61 -105 -92 -18 -28 -18 -32 -2 -98 19 -82 17
-90 -58 -195 -45 -62 -56 -86 -56 -116 0 -51 25 -66 84 -49 23 6 58 10 76 8
39 -3 51 -20 75 -110 18 -68 37 -78 94 -48 22 11 52 20 67 20 39 0 104 -34
143 -74 l32 -33 -40 -80 c-48 -97 -103 -253 -122 -348 -19 -95 -16 -264 5
-345 34 -133 116 -270 214 -363 104 -97 192 -90 192 16 0 51 -18 89 -80 172
-99 134 -139 240 -147 397 -7 122 3 188 49 327 42 129 183 406 265 521 90 125
229 265 323 322 142 87 224 102 465 84 119 -9 158 5 188 67 17 33 17 42 5 79
-20 64 -72 95 -178 109 -159 20 -316 -11 -445 -89 -85 -51 -247 -216 -352
-358 l-89 -122 -27 16 c-15 9 -27 20 -27 24 0 4 34 62 75 129 82 135 100 191
93 294 -5 89 -46 165 -133 251 -110 109 -227 158 -309 129z m78 -228 c15 -11
17 -22 12 -68 -3 -30 -9 -82 -12 -115 -11 -113 27 -134 108 -58 37 35 55 45
76 42 23 -3 27 -8 30 -40 2 -28 -11 -65 -59 -163 -58 -117 -66 -129 -105 -148
-34 -16 -49 -18 -76 -11 -38 11 -55 39 -63 107 -6 47 -32 87 -57 87 -6 0 -30
-20 -52 -45 -46 -50 -66 -55 -96 -25 -28 28 -25 71 9 166 25 70 33 82 74 109
25 17 54 46 65 65 22 37 64 80 97 98 26 15 28 15 49 -1z m163 -731 c7 -7 -106
-176 -117 -176 -15 0 -50 67 -50 96 1 56 59 98 123 90 21 -2 41 -7 44 -10z"/>
<path d="M14530 13260 c-24 -24 -26 -70 -4 -116 32 -68 295 -300 476 -422 37
-24 65 -48 63 -52 -3 -5 -31 -2 -63 5 -141 33 -283 107 -422 220 -62 50 -117
87 -136 91 -119 22 -146 -54 -64 -178 39 -59 157 -152 262 -208 46 -24 84 -44
85 -44 1 -1 -5 -33 -12 -73 -15 -80 -36 -128 -60 -137 -45 -17 -76 -4 -227 97
-169 114 -322 196 -479 257 -115 45 -159 49 -206 20 -68 -41 -64 -138 9 -193
18 -14 130 -66 248 -115 497 -207 577 -249 647 -340 52 -69 68 -137 66 -282
-3 -206 -35 -377 -135 -710 -37 -125 -47 -174 -43 -202 19 -111 159 -121 238
-16 72 95 122 336 147 723 6 88 16 177 21 198 12 45 41 77 70 77 31 0 83 -35
117 -78 l29 -37 -4 -120 c-3 -66 -1 -151 5 -189 28 -177 141 -274 196 -168 18
36 19 54 10 253 -8 187 9 309 59 411 l30 63 13 -171 c21 -292 64 -556 98 -609
41 -62 144 -87 186 -45 25 25 25 37 -5 162 -48 203 -75 504 -75 845 l0 223 38
19 c21 11 55 38 75 60 118 131 -17 264 -209 206 -71 -21 -91 -19 -171 19 -149
72 -505 339 -670 504 -71 72 -160 95 -203 52z m887 -783 c48 -55 66 -123 58
-218 -8 -90 -9 -90 -97 -103 -68 -10 -107 -41 -131 -104 -23 -62 -42 -70 -117
-52 -183 44 -263 231 -181 423 l18 42 69 0 c60 0 75 4 112 29 23 16 51 44 63
62 l20 34 78 -39 c43 -22 91 -55 108 -74z"/>
<path d="M3320 12660 c-25 -25 -28 -41 -33 -185 -5 -130 -28 -224 -70 -286
-30 -45 -57 -44 -80 3 -17 34 -17 41 -3 89 31 102 16 194 -38 237 -15 11 -52
26 -82 32 -51 11 -57 10 -99 -14 -54 -32 -118 -125 -202 -296 -78 -159 -113
-262 -113 -335 0 -110 48 -159 156 -160 l61 0 -44 -50 c-24 -27 -57 -77 -75
-111 -39 -74 -34 -108 17 -130 94 -39 167 1 282 156 77 103 139 134 184 89 22
-22 22 -55 3 -172 -16 -93 79 -90 160 5 49 56 70 131 63 221 -4 56 -13 86 -47
153 l-43 84 26 38 c61 93 133 261 167 388 15 60 18 85 10 114 -18 68 -108 150
-165 150 -8 0 -24 -9 -35 -20z m-342 -375 c2 -53 -2 -70 -38 -145 -62 -127
-129 -187 -168 -148 -18 18 -14 60 12 132 46 128 124 231 170 224 18 -3 21
-11 24 -63z m30 -337 c33 -33 -12 -114 -83 -148 -25 -12 -48 -20 -51 -17 -8 7
97 177 110 177 7 0 17 -5 24 -12z"/>
<path d="M1633 12323 c-35 -39 -89 -148 -107 -220 -47 -180 3 -283 172 -353
127 -54 237 -59 320 -16 77 40 162 210 162 323 0 73 -12 93 -55 93 -43 0 -67
-25 -95 -100 -25 -66 -52 -100 -80 -100 -27 0 -33 31 -25 141 7 104 -1 139
-33 139 -46 0 -94 -70 -128 -185 -21 -75 -41 -105 -67 -105 -33 0 -46 30 -47
101 0 60 5 76 45 155 49 98 55 128 26 144 -33 17 -61 11 -88 -17z"/>
<path d="M15133 9136 c4 -10 7 -39 7 -64 l0 -47 143 -58 c156 -64 259 -116
264 -133 2 -6 -86 -58 -195 -115 l-199 -104 5 -115 c2 -63 6 -116 7 -118 4 -4
404 224 484 275 l54 35 188 -4 188 -3 -6 110 c-3 61 -7 111 -8 113 -2 2 -46
-1 -99 -7 -52 -6 -145 -11 -206 -11 l-111 0 -252 128 c-298 151 -272 139 -264
118z"/>
<path d="M1523 9020 c-2 -56 0 -61 25 -77 80 -49 302 -199 302 -204 0 -3 -78
-43 -172 -88 l-173 -82 -2 -114 -1 -113 36 15 c21 8 140 67 265 130 l229 115
175 -134 c96 -73 184 -140 196 -150 l22 -16 0 69 0 70 -160 104 -160 104 145
68 c80 38 156 73 170 79 24 11 25 14 26 127 1 65 0 117 -2 117 -2 0 -113 -56
-247 -125 -134 -69 -248 -125 -253 -125 -6 0 -100 65 -210 145 -109 79 -201
145 -204 145 -3 0 -6 -27 -7 -60z"/>
<path d="M15136 8133 c-9 -120 -34 -355 -52 -487 -8 -60 -13 -110 -11 -112 1
-1 25 -6 53 -9 l51 -7 7 118 c4 66 10 122 14 125 13 11 408 -34 778 -87 l41
-6 6 48 c4 27 9 77 13 112 l7 62 -54 0 c-66 0 -315 24 -539 51 -243 29 -230
26 -230 63 0 17 8 70 18 119 l18 87 -35 0 c-20 0 -46 3 -58 6 -20 6 -21 2 -27
-83z"/>
<path d="M2395 7999 c-123 -18 -427 -40 -639 -46 l-218 -6 6 -45 c3 -25 6 -74
6 -110 l0 -65 58 6 c31 3 140 15 242 26 102 11 286 23 409 27 l223 7 -6 45
c-3 25 -6 73 -6 108 0 35 -3 63 -7 63 -5 -1 -35 -5 -68 -10z"/>
<path d="M2504 7456 c-36 -16 -59 -64 -50 -106 5 -25 2 -30 -15 -30 -28 0 -97
37 -111 60 -13 20 -68 29 -68 11 0 -23 69 -97 110 -118 88 -45 205 -39 257 13
22 23 25 32 21 80 -6 65 -27 92 -79 99 -19 3 -48 -1 -65 -9z"/>
<path d="M15005 7252 c-9 -47 -33 -146 -40 -164 -8 -21 -17 -19 165 -53 202
-38 631 -145 725 -181 11 -4 15 1 16 17 0 13 10 63 23 112 12 48 22 87 21 87
-6 0 -153 27 -300 56 -147 29 -375 86 -572 143 -31 9 -33 8 -38 -17z"/>
<path d="M1725 6733 c5 -10 13 -37 19 -60 l10 -43 149 -2 149 -3 24 -65 c13
-36 33 -99 45 -140 12 -41 23 -79 26 -86 2 -6 -49 -51 -115 -100 l-119 -87 22
-56 c12 -31 28 -80 35 -108 6 -29 14 -53 16 -53 2 0 83 69 181 153 98 84 266
224 373 311 107 88 200 164 207 170 19 17 -13 105 -41 110 -11 2 -112 9 -224
15 -111 7 -321 23 -465 36 -318 30 -301 30 -292 8z m692 -130 c34 -3 60 -10
57 -15 -8 -13 -255 -210 -258 -206 -5 5 -76 223 -76 232 0 8 136 3 277 -11z"/>
<path d="M14867 6661 c-48 -53 -74 -106 -93 -188 -18 -76 -13 -124 17 -193 44
-99 122 -151 240 -158 100 -6 119 4 255 130 141 131 183 148 261 111 47 -22
78 -88 69 -145 -16 -100 -93 -178 -175 -178 -52 0 -43 -16 36 -64 87 -53 87
-53 143 34 91 142 101 331 22 440 -72 101 -224 148 -327 101 -22 -10 -81 -57
-132 -104 -123 -115 -168 -147 -210 -147 -74 0 -123 52 -123 130 0 84 55 154
131 166 21 4 39 12 39 18 0 9 -81 70 -111 84 -3 1 -22 -15 -42 -37z"/>
<path d="M2855 5938 c-177 -90 -453 -218 -590 -273 -66 -27 -121 -49 -123 -50
-2 -2 38 -78 53 -102 1 -2 93 44 206 101 238 121 367 181 375 174 6 -7 -153
-421 -249 -646 l-74 -174 26 -47 25 -48 215 104 c208 101 441 206 566 255 33
14 59 27 57 31 -1 4 -13 28 -25 55 l-22 48 -40 -24 c-46 -27 -519 -262 -528
-262 -3 0 6 28 20 63 14 34 85 216 158 405 l133 343 -27 54 c-14 30 -28 54
-31 54 -3 0 -59 -28 -125 -61z"/>
<path d="M14639 5894 c-75 -23 -117 -79 -220 -290 -49 -103 -89 -188 -87 -189
2 -1 71 -33 153 -71 162 -74 550 -266 629 -311 33 -19 50 -24 53 -16 2 6 24
50 48 97 l43 85 -42 16 c-83 33 -346 158 -346 165 0 9 73 16 320 31 96 6 176
14 178 19 2 5 25 53 52 107 27 53 48 98 47 100 -2 1 -100 -9 -217 -22 -118
-13 -238 -27 -265 -30 l-51 -5 4 66 c3 45 -1 78 -12 109 -23 59 -91 120 -157
139 -62 19 -70 19 -130 0z m86 -208 c63 -29 113 -80 121 -123 7 -38 -1 -100
-17 -137 l-12 -25 -161 81 c-88 44 -163 82 -165 84 -9 8 34 88 62 115 37 37
100 39 172 5z"/>
<path d="M14115 5115 c-37 -58 -103 -153 -146 -210 -43 -58 -79 -107 -79 -110
0 -3 46 -35 102 -71 111 -72 486 -338 585 -415 35 -27 66 -49 70 -48 5 0 37
46 73 102 36 56 100 148 142 205 43 56 79 106 81 111 2 9 -82 76 -87 69 -1 -2
-15 -25 -31 -53 -54 -96 -127 -205 -137 -205 -14 0 -277 183 -278 194 0 10 51
81 127 178 53 67 53 67 31 79 -13 6 -33 21 -46 32 -15 14 -26 18 -30 11 -4 -6
-41 -63 -82 -127 -41 -65 -80 -116 -85 -115 -14 4 -234 162 -235 168 0 3 42
59 93 125 l94 120 -43 32 c-24 18 -45 33 -47 33 -3 0 -35 -47 -72 -105z"/>
<path d="M3634 4654 c-98 -83 -595 -465 -660 -508 -55 -36 -103 -43 -145 -22
-32 16 -34 16 -51 -6 -16 -22 -16 -24 10 -51 62 -65 199 -102 288 -78 57 15
138 70 315 213 160 128 353 275 426 323 l43 27 -44 52 c-23 28 -54 68 -68 88
l-24 37 -90 -75z"/>
<path d="M13738 4552 l-35 -38 160 -322 c88 -178 158 -325 155 -327 -5 -6
-430 168 -572 234 l-89 41 -77 -83 c-43 -45 -75 -85 -72 -89 4 -3 72 -31 152
-61 172 -65 621 -244 703 -281 l58 -25 42 42 42 42 -101 210 c-55 116 -150
319 -210 453 -60 133 -112 242 -115 242 -3 0 -22 -17 -41 -38z"/>
<path d="M4058 4246 c-56 -70 -462 -443 -613 -563 l-40 -31 40 -39 c23 -21 57
-57 77 -81 l36 -43 189 188 c103 104 257 247 340 318 l152 128 -71 76 c-40 42
-74 77 -77 78 -4 2 -18 -12 -33 -31z"/>
<path d="M12929 3744 c-19 -20 -55 -53 -81 -74 l-46 -37 70 -69 c128 -126 483
-532 545 -623 1 -2 30 22 64 53 34 31 72 64 85 73 l24 15 -179 187 c-137 142
-338 372 -446 508 -1 2 -17 -14 -36 -33z"/>
<path d="M4505 3601 c-99 -59 -294 -170 -433 -246 l-253 -138 43 -38 c24 -21
46 -38 50 -39 4 0 59 34 121 75 63 41 120 75 126 75 24 0 249 -177 250 -197 1
-6 -19 -69 -44 -139 -25 -69 -45 -129 -45 -133 0 -4 13 -14 29 -24 16 -10 57
-40 90 -68 34 -28 61 -48 61 -44 0 13 141 507 209 735 42 139 67 236 61 238
-6 2 -24 15 -39 28 -16 13 -33 24 -37 23 -5 -1 -90 -49 -189 -108z m32 -103
c-2 -7 -23 -76 -47 -153 -23 -77 -45 -145 -48 -151 -5 -7 -43 17 -104 65 -77
60 -95 78 -85 88 15 15 269 163 281 163 4 0 6 -6 3 -12z"/>
<path d="M12536 3431 c-10 -11 -31 -25 -47 -31 l-29 -12 31 -42 c37 -48 329
-490 326 -492 -1 -1 -193 47 -427 106 l-425 108 -27 -24 c-16 -12 -37 -26 -49
-29 -26 -9 -25 -11 70 -154 106 -158 242 -378 326 -526 37 -66 69 -122 71
-124 2 -2 17 8 34 22 16 14 39 28 49 32 18 5 13 16 -49 103 -117 166 -292 446
-281 450 15 5 418 -96 653 -163 l195 -56 46 31 46 31 -116 177 c-112 170 -248
393 -327 534 -21 37 -41 70 -45 73 -5 2 -16 -4 -25 -14z"/>
<path d="M5238 3111 c-127 -41 -224 -126 -287 -252 -67 -134 -78 -260 -31
-381 57 -151 219 -285 402 -334 76 -20 204 -18 277 5 166 52 294 198 337 386
47 205 -75 420 -301 530 -134 66 -281 83 -397 46z m345 -107 c52 -18 130 -82
153 -126 42 -82 34 -209 -20 -323 -117 -247 -329 -370 -494 -286 -173 88 -202
288 -71 492 139 217 279 295 432 243z"/>
<path d="M11565 2839 c-22 -10 -48 -19 -57 -19 -10 0 -18 -2 -18 -4 0 -1 20
-45 44 -97 60 -131 160 -379 186 -467 36 -119 12 -229 -63 -286 -91 -70 -188
-84 -273 -41 -66 34 -104 87 -169 238 -48 112 -155 394 -155 409 0 4 -4 18
-10 32 l-9 25 -63 -28 c-35 -16 -78 -32 -95 -36 -18 -3 -35 -10 -38 -15 -3 -4
7 -34 21 -66 14 -33 68 -162 120 -288 52 -125 106 -248 120 -272 73 -124 208
-170 381 -129 147 35 265 117 323 227 60 112 51 168 -95 558 -40 107 -79 214
-86 238 -7 23 -15 42 -18 41 -3 0 -24 -9 -46 -20z"/>
<path d="M6250 2733 c0 -10 -8 -35 -19 -56 l-19 -37 42 -10 c79 -20 196 -64
196 -73 0 -16 -112 -290 -212 -517 -55 -124 -102 -230 -104 -236 -3 -7 16 -19
48 -29 29 -10 74 -29 101 -42 l47 -23 11 27 c6 16 30 81 54 145 107 285 243
598 259 598 7 0 56 -22 110 -49 83 -42 98 -46 103 -32 3 9 12 31 20 50 7 19
10 38 6 42 -5 3 -33 14 -63 24 -74 24 -266 100 -425 170 -71 31 -136 59 -142
62 -8 3 -13 -2 -13 -14z"/>
<path d="M7296 2354 c-130 -31 -260 -135 -312 -248 -119 -259 -35 -531 200
-646 317 -157 658 -43 768 256 17 47 21 82 22 179 1 120 1 121 -37 197 -66
134 -189 225 -354 262 -87 19 -207 19 -287 0z m283 -80 c69 -20 132 -83 161
-162 59 -154 5 -411 -113 -539 -60 -66 -127 -97 -207 -97 -259 0 -354 296
-199 620 77 162 202 225 358 178z"/>
<path d="M9865 2325 c-254 -55 -424 -227 -442 -445 -16 -191 78 -384 223 -458
118 -60 304 -74 456 -34 95 26 278 101 285 118 2 7 -5 54 -16 106 -11 51 -25
130 -31 176 -11 71 -15 82 -30 77 -9 -3 -52 -12 -95 -20 -43 -9 -81 -17 -83
-20 -2 -2 8 -54 22 -115 15 -61 30 -132 33 -159 l6 -49 -59 -23 c-85 -33 -230
-34 -292 -1 -90 48 -168 161 -192 279 -18 86 -9 237 18 297 35 78 85 131 156
166 115 57 239 51 333 -16 26 -18 51 -30 54 -26 4 4 9 36 10 72 l3 65 -45 12
c-59 15 -240 15 -314 -2z"/>
<path d="M8330 2125 c0 -192 -26 -615 -46 -777 l-7 -48 60 0 60 0 6 303 c4
167 10 313 14 325 7 19 22 5 128 -115 112 -128 248 -289 391 -464 60 -73 61
-74 111 -76 62 -2 63 0 63 137 0 177 26 595 46 747 l5 41 -61 4 -60 3 -1 -210
c-1 -115 -4 -261 -8 -323 l-6 -113 -65 78 c-35 43 -164 193 -286 333 l-221
255 -62 0 -61 1 0 -101z"/>
</g>
</svg>
